<?xml version="1.0" encoding="UTF-8"?>
<svg width="16px" height="16px" viewBox="0 0 16 16" version="1.1" xmlns="http://www.w3.org/2000/svg" xmlns:xlink="http://www.w3.org/1999/xlink">
    <!-- Generator: Sketch 60 (88103) - https://sketch.com -->
    <title>画板</title>
    <desc>Created with Sketch.</desc>
    <g id="画板" stroke="none" stroke-width="1" fill="none" fill-rule="evenodd">
        <g id="编组-9备份" transform="translate(1.737342, 0.377687)">
            <rect id="矩形备份-59" stroke="#FA5D3A" stroke-width="1.2" x="1.28037603" y="3.17519789" width="9.76500398" height="9.76500398" rx="1"></rect>
            <path d="M6.03080637,10.0587046 C5.76314805,10.0587046 5.49682137,10.1596128 5.30728555,10.3329471 C5.11774972,10.5062813 5.00766803,10.7500073 5.00766803,10.9949538 C5.00766803,11.2399004 5.11774972,11.4840332 5.30728555,11.6569606 C5.49637749,11.8302949 5.76270418,11.9312031 6.03080637,11.9312031 C6.29890857,11.9312031 6.56479137,11.8302949 6.7543272,11.6569606 C6.94341914,11.4836263 7.05394471,11.2399004 7.05394471,10.9949538 C7.05394471,10.7500073 6.94386302,10.5058745 6.7543272,10.3329471 C6.56523525,10.1596128 6.29890857,10.0587046 6.03080637,10.0587046 Z" id="路径备份-11" fill="#FA5D3A" fill-rule="nonzero"></path>
            <path d="M4.3492375,5.00706538 C3.92444644,5.39442275 3.67676262,5.9278529 3.66300241,6.41937359 C3.6492422,6.91089428 4.78157448,6.8087654 4.823299,6.56626016 C4.86768678,6.30910695 5.0532277,5.89367431 5.26939619,5.70569206 C5.48556468,5.51770981 5.75499851,5.4233118 6.07636604,5.4233118 C6.41016215,5.4233118 6.67560108,5.51364093 6.87223895,5.6942992 C7.06887682,5.87495746 7.16786157,6.09223565 7.16786157,6.34531998 C7.16786157,6.52801269 7.11193296,6.69524365 7.00140739,6.84701287 C6.92949919,6.94303843 6.70844804,7.14566865 6.34002946,7.45531041 C5.97161088,7.76495217 5.72481482,8.04367044 5.60230455,8.29105834 C5.47979427,8.53844624 5.40677476,8.77566793 5.40677476,9.15977019 C5.40677476,9.19639011 5.36348804,9.62757372 5.9695038,9.62757372 C6.37351431,9.62757372 6.56303147,9.47163921 6.53805526,9.15977019 C6.53184097,8.80089498 6.59392757,8.94085846 6.65828985,8.80170277 C6.72265213,8.66214019 6.88821855,8.47781993 7.15454523,8.24914888 C7.66944349,7.80686164 8.00590287,7.45653108 8.16347949,7.20019164 C8.32061223,6.94344532 8.39873472,6.67042348 8.39873472,6.38275367 C8.39873472,5.86275082 8.18478562,5.40662939 7.75511191,5.01479626 C7.32543819,4.62296312 6.74839704,4.42684311 6.02221295,4.42684311 C5.33153908,4.42684311 4.77402856,4.62052179 4.3492375,5.00706538 Z" id="路径备份-12" fill="#FA5D3A" fill-rule="nonzero"></path>
            <circle id="椭圆形备份-34" stroke="#FA5D3A" stroke-width="1.2" fill="#FFFFFF" cx="10.7847763" cy="2.81898842" r="2.055299"></circle>
        </g>
    </g>
</svg>