<?xml version="1.0" encoding="UTF-8"?>
<svg width="14px" height="14px" viewBox="0 0 14 14" version="1.1" xmlns="http://www.w3.org/2000/svg" xmlns:xlink="http://www.w3.org/1999/xlink">
    <!-- Generator: Sketch 60 (88103) - https://sketch.com -->
    <title>水表-问号</title>
    <desc>Created with Sketch.</desc>
    <g id="页面-1" stroke="none" stroke-width="1" fill="none" fill-rule="evenodd">
        <g id="水表-问号" transform="translate(1.000000, 1.000000)">
            <circle id="椭圆形备份-5" stroke="#FA5D3A" stroke-width="1.2" cx="6" cy="6.099575" r="5.9"></circle>
            <path d="M6,7.74342551 C5.76679958,7.74342551 5.53475936,7.83933547 5.36962407,8.00408403 C5.20448878,8.16883258 5.10857883,8.40048607 5.10857883,8.63329975 C5.10857883,8.86611344 5.20448878,9.09815366 5.36962407,9.26251548 C5.53437263,9.42726403 5.76641285,9.52317399 6,9.52317399 C6.23358715,9.52317399 6.46524064,9.42726403 6.63037593,9.26251548 C6.79512448,9.09776692 6.89142117,8.86611344 6.89142117,8.63329975 C6.89142117,8.40048607 6.79551122,8.16844585 6.63037593,8.00408403 C6.46562737,7.83933547 6.23358715,7.74342551 6,7.74342551 Z" id="路径备份-9" fill="#FA5D3A" fill-rule="nonzero"></path>
            <path d="M4.53491358,3.02830918 C4.16480943,3.39647966 3.94901202,3.90348754 3.93702328,4.37066185 C3.92503454,4.83783615 4.9115922,4.74076599 4.94794517,4.51027271 C4.98661854,4.26585701 5.14827322,3.87100191 5.33661253,3.69233094 C5.52495184,3.51365997 5.7596992,3.42393775 6.03969439,3.42393775 C6.33051813,3.42393775 6.56178489,3.50979263 6.73310791,3.6815024 C6.90443094,3.85321216 6.99067256,4.05972795 6.99067256,4.30027631 C6.99067256,4.47391974 6.94194411,4.63286729 6.84564742,4.77711896 C6.78299656,4.86838811 6.59040318,5.0609815 6.26941421,5.35528584 C5.94842524,5.64959018 5.73340131,5.91450277 5.6266628,6.14963685 C5.5199243,6.38477094 5.45630521,6.61024238 5.45630521,6.97531899 C5.45630521,7.01012503 5.41859114,7.41995092 5.94658942,7.41995092 C6.29858828,7.41995092 6.4637073,7.27174028 6.44194649,6.97531899 C6.43653222,6.63421987 6.49062589,6.76725057 6.54670227,6.63498764 C6.60277866,6.50233799 6.74703033,6.32714762 6.97907055,6.10980328 C7.42768163,5.68942375 7.72082578,5.35644604 7.85811624,5.11280381 C7.99501997,4.86877485 8.0630851,4.60927654 8.0630851,4.33585581 C8.0630851,3.84161015 7.87667946,3.40808167 7.50232124,3.03565712 C7.12796302,2.66323257 6.62520921,2.47682693 5.99251288,2.47682693 C5.39075525,2.47682693 4.90501773,2.66091217 4.53491358,3.02830918 Z" id="路径备份-10" fill="#FA5D3A" fill-rule="nonzero"></path>
        </g>
    </g>
</svg>