<?xml version="1.0" encoding="UTF-8"?>
<svg width="16px" height="16px" viewBox="0 0 16 16" version="1.1" xmlns="http://www.w3.org/2000/svg" xmlns:xlink="http://www.w3.org/1999/xlink">
    <!-- Generator: Sketch 60 (88103) - https://sketch.com -->
    <title>画板</title>
    <desc>Created with Sketch.</desc>
    <g id="画板" stroke="none" stroke-width="1" fill="none" fill-rule="evenodd">
        <g id="编组-6备份-3" transform="translate(2.500000, 2.500000)">
            <g id="编组-10" transform="translate(-0.000000, -0.000000)">
                <path d="M8.37225913,-1.12798659e-13 L9.96500398,-1.12798659e-13 C10.5172887,-1.12798659e-13 10.965004,0.44771525 10.965004,1 L10.965004,9.96500398 C10.965004,10.5172887 10.5172887,10.965004 9.96500398,10.965004 L1,10.965004 C0.44771525,10.965004 -1.12798659e-13,10.5172887 -1.12798659e-13,9.96500398 L-1.12798659e-13,1 C-1.12798659e-13,0.44771525 0.44771525,-1.12798659e-13 1,-1.12798659e-13 L2.38599434,-1.12798659e-13" id="路径备份-42" stroke="#FA5D3A" stroke-width="1.2" stroke-linecap="round"></path>
                <path d="M5.35043035,7.48350667 C5.08277203,7.48350667 4.81644534,7.58441489 4.62690952,7.75774917 C4.4373737,7.93108345 4.327292,8.17480936 4.327292,8.41975593 C4.327292,8.6647025 4.4373737,8.90883529 4.62690952,9.08176269 C4.81600147,9.25509697 5.08232815,9.35600519 5.35043035,9.35600519 C5.61853254,9.35600519 5.88441535,9.25509697 6.07395117,9.08176269 C6.26304311,8.9084284 6.37356869,8.6647025 6.37356869,8.41975593 C6.37356869,8.17480936 6.26348699,7.93067657 6.07395117,7.75774917 C5.88485922,7.58441489 5.61853254,7.48350667 5.35043035,7.48350667 Z" id="路径备份-11" fill="#FA5D3A" fill-rule="nonzero"></path>
                <path d="M3.66886147,2.43186749 C3.24407041,2.81922486 2.9963866,3.35265501 2.98262639,3.8441757 C2.96886617,4.33569639 4.10119846,4.23356751 4.14292297,3.99106227 C4.18731075,3.73390906 4.37285167,3.31847642 4.58902017,3.13049417 C4.80518866,2.94251192 5.07462249,2.84811391 5.39599002,2.84811391 C5.72978613,2.84811391 5.99522506,2.93844304 6.19186292,3.11910131 C6.38850079,3.29975957 6.48748554,3.51703776 6.48748554,3.77012209 C6.48748554,3.95281479 6.43155694,4.12004576 6.32103137,4.27181498 C6.24912316,4.36784054 6.02807201,4.57047076 5.65965343,4.88011252 C5.29123486,5.18975428 5.0444388,5.46847255 4.92192852,5.71586045 C4.79941825,5.96324835 4.72639874,6.20047004 4.72639874,6.5845723 C4.72639874,6.62119222 4.68311201,7.05237583 5.28912778,7.05237583 C5.69313829,7.05237583 5.88265544,6.89644132 5.85767923,6.5845723 C5.85146494,6.22569709 5.91355154,6.36566057 5.97791382,6.22650488 C6.0422761,6.0869423 6.20784252,5.90262204 6.47416921,5.67395099 C6.98906746,5.23166374 7.32552684,4.88133319 7.48310346,4.62499375 C7.6402362,4.36824743 7.7183587,4.09522559 7.7183587,3.80755578 C7.7183587,3.28755293 7.5044096,2.8314315 7.07473588,2.43959836 C6.64506216,2.04776523 6.06802102,1.85164522 5.34183693,1.85164522 C4.65116306,1.85164522 4.09365253,2.0453239 3.66886147,2.43186749 Z" id="路径备份-12" fill="#FA5D3A" fill-rule="nonzero"></path>
            </g>
            <g id="编组-5备份-3" transform="translate(2.982502, 1.851645)"></g>
        </g>
    </g>
</svg>