<?xml version="1.0" encoding="UTF-8"?>
<svg width="178px" height="97px" viewBox="0 0 178 97" version="1.1" xmlns="http://www.w3.org/2000/svg" xmlns:xlink="http://www.w3.org/1999/xlink">
    <!-- Generator: Sketch 60 (88103) - https://sketch.com -->
    <title>画板</title>
    <desc>Created with Sketch.</desc>
    <g id="画板" stroke="none" stroke-width="1" fill="none" fill-rule="evenodd">
        <path d="M10.5937714,11.5548982 C10.7567152,11.5548982 10.8937714,11.4178419 10.8937714,11.2548982 L10.8937714,1.65489818 C10.8937714,1.49195446 10.7567152,1.35489818 10.5937714,1.35489818 L0.993771429,1.35489818 C0.830827703,1.35489818 0.693771429,1.49195446 0.693771429,1.65489818 L0.693771429,11.2548982 C0.693771429,11.4178419 0.830827703,11.5548982 0.993771429,11.5548982 L10.5937714,11.5548982 Z" id="路径备份-22" stroke="#B4C3D3" stroke-width="1.8" fill="#F2F2F2" fill-rule="nonzero"></path>
        <path d="M10.5937714,25.6911736 C10.7567152,25.6911736 10.8937714,25.5541174 10.8937714,25.3911736 L10.8937714,15.7911736 C10.8937714,15.6282299 10.7567152,15.4911736 10.5937714,15.4911736 L0.993771429,15.4911736 C0.830827703,15.4911736 0.693771429,15.6282299 0.693771429,15.7911736 L0.693771429,25.3911736 C0.693771429,25.5541174 0.830827703,25.6911736 0.993771429,25.6911736 L10.5937714,25.6911736 Z" id="路径备份-24" stroke="#B4C3D3" stroke-width="1.8" fill="#F2F2F2" fill-rule="nonzero"></path>
        <path d="M10.5937714,68.1 C10.7567152,68.1 10.8937714,67.9629437 10.8937714,67.8 L10.8937714,58.2 C10.8937714,58.0370563 10.7567152,57.9 10.5937714,57.9 L0.993771429,57.9 C0.830827703,57.9 0.693771429,58.0370563 0.693771429,58.2 L0.693771429,67.8 C0.693771429,67.9629437 0.830827703,68.1 0.993771429,68.1 L10.5937714,68.1 Z" id="路径备份-34" stroke="#A4A6A6" stroke-width="1.8" fill="#EAEAEA" fill-rule="nonzero"></path>
        <polygon id="路径备份-23" fill="#7A8CA0" fill-rule="nonzero" points="81.2064727 14.6660998 81.2064727 3.66609979 86.2064727 9.05804478"></polygon>
        <polygon id="路径备份-27" fill="#7A8CA0" fill-rule="nonzero" transform="translate(100.675241, 9.954898) rotate(-270.000000) translate(-100.675241, -9.954898) " points="98.1752407 15.4548982 98.1752407 4.45489818 103.175241 9.84684317"></polygon>
        <polygon id="路径备份-28" fill="#7A8CA0" fill-rule="nonzero" transform="translate(100.675241, 27.601170) rotate(-270.000000) translate(-100.675241, -27.601170) " points="98.1752407 33.1011699 98.1752407 22.1011699 103.175241 27.4931149"></polygon>
        <polygon id="路径备份-37" fill="#7A8CA0" fill-rule="nonzero" transform="translate(100.675241, 46.247442) rotate(-270.000000) translate(-100.675241, -46.247442) " points="98.1752407 51.7474415 98.1752407 40.7474415 103.175241 46.1393865"></polygon>
        <polygon id="路径备份-38" fill="#7A8CA0" fill-rule="nonzero" transform="translate(100.675241, 64.344077) rotate(-270.000000) translate(-100.675241, -64.344077) " points="98.1752407 69.8440775 98.1752407 58.8440775 103.175241 64.2360225"></polygon>
        <polygon id="路径备份-25" fill="#7A8CA0" fill-rule="nonzero" points="81.2064727 33.1011699 81.2064727 22.1011699 86.2064727 27.4931149"></polygon>
        <polygon id="路径备份-26" fill="#7A8CA0" fill-rule="nonzero" points="81.2064727 51.5362399 81.2064727 40.5362399 86.2064727 45.9281849"></polygon>
        <polygon id="路径备份-39" fill="#7A8CA0" fill-rule="nonzero" points="80.1130242 69 80.1130242 58 85.1130242 63.391945"></polygon>
        <g id="编组" transform="translate(14.387667, 0.454898)">
            <path d="M10.8,12 L1.2,12 C0.54,12 0,11.46 0,10.8 L0,1.2 C0,0.54 0.54,0 1.2,0 L10.8,0 C11.46,0 12,0.54 12,1.2 L12,10.8 C12,11.46 11.46,12 10.8,12 Z" id="路径" fill="#00BAB5" fill-rule="nonzero"></path>
            <polyline id="路径" stroke="#FFFFFF" stroke-width="1.5" stroke-linecap="round" stroke-linejoin="round" points="2.35181818 5.00136364 5.53090909 8.18045455 9.89181818 3.81954545"></polyline>
        </g>
        <g id="编组-2" transform="translate(14.387667, 14.591174)">
            <path d="M10.8,12 L1.2,12 C0.54,12 0,11.46 0,10.8 L0,1.2 C0,0.54 0.54,0 1.2,0 L10.8,0 C11.46,0 12,0.54 12,1.2 L12,10.8 C12,11.46 11.46,12 10.8,12 Z" id="路径备份-29" fill="#00BAB5" fill-rule="nonzero"></path>
            <polyline id="路径备份-30" stroke="#FFFFFF" stroke-width="1.5" stroke-linecap="round" stroke-linejoin="round" points="2.35181818 5.00136364 5.53090909 8.18045455 9.89181818 3.81954545"></polyline>
        </g>
        <path d="M25.187667,69 L15.587667,69 C14.927667,69 14.387667,68.46 14.387667,67.8 L14.387667,58.2 C14.387667,57.54 14.927667,57 15.587667,57 L25.187667,57 C25.847667,57 26.387667,57.54 26.387667,58.2 L26.387667,67.8 C26.387667,68.46 25.847667,69 25.187667,69 Z" id="路径备份-35" fill="#A4A6A6" fill-rule="nonzero"></path>
        <polyline id="路径备份-36" stroke="#FFFFFF" stroke-width="1.5" stroke-linecap="round" stroke-linejoin="round" points="16.7394851 62.0013636 19.9185761 65.1804545 24.2794851 60.8195455"></polyline>
        <g id="编组-10" transform="translate(42.175488, 0.454898)">
            <circle id="椭圆形" fill="#00B9B4" cx="6" cy="6" r="6"></circle>
            <circle id="椭圆形" stroke="#FFFFFF" fill="#FFFFFF" cx="6" cy="6" r="1.71123838"></circle>
        </g>
        <g id="编组-6" transform="translate(42.175488, 14.591174)">
            <circle id="椭圆形备份-27" fill="#00B9B4" cx="6" cy="6" r="6"></circle>
            <circle id="椭圆形备份-28" stroke="#FFFFFF" fill="#FFFFFF" cx="6" cy="6" r="1.71123838"></circle>
        </g>
        <circle id="椭圆形备份-35" fill="#A4A6A6" cx="48.1754883" cy="63" r="6"></circle>
        <circle id="椭圆形备份-36" stroke="#FFFFFF" fill="#FFFFFF" cx="48.1754883" cy="63" r="1.71123838"></circle>
        <circle id="椭圆形备份" stroke="#B4C3D3" stroke-width="1.8" fill="#F2F2F2" fill-rule="nonzero" cx="34.9815625" cy="6.45489818" r="5.1"></circle>
        <circle id="椭圆形备份-31" stroke="#B4C3D3" stroke-width="1.8" fill="#F2F2F2" fill-rule="nonzero" cx="34.9815625" cy="20.5911736" r="5.1"></circle>
        <circle id="椭圆形备份-37" stroke="#A4A6A6" stroke-width="1.8" fill="#EAEAEA" fill-rule="nonzero" cx="34.9815625" cy="63" r="5.1"></circle>
        <path d="M10.5937714,39.6362399 C10.7567152,39.6362399 10.8937714,39.4991837 10.8937714,39.3362399 L10.8937714,29.7362399 C10.8937714,29.5732962 10.7567152,29.4362399 10.5937714,29.4362399 L0.993771429,29.4362399 C0.830827703,29.4362399 0.693771429,29.5732962 0.693771429,29.7362399 L0.693771429,39.3362399 C0.693771429,39.4991837 0.830827703,39.6362399 0.993771429,39.6362399 L10.5937714,39.6362399 Z" id="路径备份-40" stroke="#659B9A" stroke-width="1.8" fill="#F2F2F2" fill-rule="nonzero"></path>
        <path d="M10.5937714,53.6 C10.7567152,53.6 10.8937714,53.4629437 10.8937714,53.3 L10.8937714,43.7 C10.8937714,43.5370563 10.7567152,43.4 10.5937714,43.4 L0.993771429,43.4 C0.830827703,43.4 0.693771429,43.5370563 0.693771429,43.7 L0.693771429,53.3 C0.693771429,53.4629437 0.830827703,53.6 0.993771429,53.6 L10.5937714,53.6 Z" id="路径备份-43" stroke="#659B9A" stroke-width="1.8" fill="#F2F2F2" fill-rule="nonzero"></path>
        <path d="M25.187667,40.5362399 L15.587667,40.5362399 C14.927667,40.5362399 14.387667,39.9962399 14.387667,39.3362399 L14.387667,29.7362399 C14.387667,29.0762399 14.927667,28.5362399 15.587667,28.5362399 L25.187667,28.5362399 C25.847667,28.5362399 26.387667,29.0762399 26.387667,29.7362399 L26.387667,39.3362399 C26.387667,39.9962399 25.847667,40.5362399 25.187667,40.5362399 Z" id="路径备份-41" fill="#659B9A" fill-rule="nonzero"></path>
        <path d="M25.187667,54.5 L15.587667,54.5 C14.927667,54.5 14.387667,53.96 14.387667,53.3 L14.387667,43.7 C14.387667,43.04 14.927667,42.5 15.587667,42.5 L25.187667,42.5 C25.847667,42.5 26.387667,43.04 26.387667,43.7 L26.387667,53.3 C26.387667,53.96 25.847667,54.5 25.187667,54.5 Z" id="路径备份-44" fill="#659B9A" fill-rule="nonzero"></path>
        <polyline id="路径备份-42" stroke="#FFFFFF" stroke-width="1.5" stroke-linecap="round" stroke-linejoin="round" points="16.7394851 33.5376036 19.9185761 36.7166945 24.2794851 32.3557854"></polyline>
        <polyline id="路径备份-45" stroke="#FFFFFF" stroke-width="1.5" stroke-linecap="round" stroke-linejoin="round" points="16.7394851 47.5013636 19.9185761 50.6804545 24.2794851 46.3195455"></polyline>
        <g id="编组-7" transform="translate(42.175488, 28.536240)">
            <circle id="椭圆形备份-38" fill="#659B9A" cx="6" cy="6" r="6"></circle>
            <circle id="椭圆形备份-39" stroke="#FFFFFF" fill="#FFFFFF" cx="6" cy="6" r="1.71123838"></circle>
        </g>
        <g id="编组-7备份" transform="translate(42.175488, 42.500000)">
            <circle id="椭圆形备份-38" fill="#659B9A" cx="6" cy="6" r="6"></circle>
            <circle id="椭圆形备份-39" stroke="#FFFFFF" fill="#FFFFFF" cx="6" cy="6" r="1.71123838"></circle>
        </g>
        <circle id="椭圆形备份-40" stroke="#659B9A" stroke-width="1.8" fill="#F2F2F2" fill-rule="nonzero" cx="34.9815625" cy="34.5362399" r="5.1"></circle>
        <circle id="椭圆形备份-41" stroke="#659B9A" stroke-width="1.8" fill="#F2F2F2" fill-rule="nonzero" cx="34.9815625" cy="48.5" r="5.1"></circle>
    </g>
</svg>